<svg xmlns="http://www.w3.org/2000/svg" xmlns:xlink="http://www.w3.org/1999/xlink" width="100" zoomAndPan="magnify" viewBox="0 0 75 74.999997" height="100" preserveAspectRatio="xMidYMid meet" version="1.0"><defs><g/><clipPath id="62581af886"><path d="M 29.054688 11.363281 L 46.5625 11.363281 L 46.5625 58.976562 L 29.054688 58.976562 Z M 29.054688 11.363281 " clip-rule="nonzero"/></clipPath><clipPath id="b5d5f62547"><path d="M 30.355469 11.363281 L 46.5625 11.363281 L 46.5625 58.976562 L 30.355469 58.976562 Z M 30.355469 11.363281 " clip-rule="nonzero"/></clipPath></defs><g fill="#ffffff" fill-opacity="1"><g transform="translate(11.950681, 60.413201)"><g><path d="M 27.296875 1.046875 C 22.617188 1.046875 18.585938 -0.0546875 15.203125 -2.265625 C 11.828125 -4.484375 9.226562 -7.53125 7.40625 -11.40625 C 5.59375 -15.289062 4.6875 -19.722656 4.6875 -24.703125 C 4.6875 -29.773438 5.617188 -34.253906 7.484375 -38.140625 C 9.359375 -42.035156 11.976562 -45.082031 15.34375 -47.28125 C 18.71875 -49.476562 22.660156 -50.578125 27.171875 -50.578125 C 30.679688 -50.578125 33.84375 -49.925781 36.65625 -48.625 C 39.476562 -47.320312 41.785156 -45.5 43.578125 -43.15625 C 45.378906 -40.820312 46.5 -38.09375 46.9375 -34.96875 L 39.265625 -34.96875 C 38.679688 -37.25 37.382812 -39.269531 35.375 -41.03125 C 33.375 -42.800781 30.679688 -43.6875 27.296875 -43.6875 C 22.816406 -43.6875 19.203125 -41.976562 16.453125 -38.5625 C 13.710938 -35.15625 12.34375 -30.625 12.34375 -24.96875 C 12.34375 -19.175781 13.695312 -14.539062 16.40625 -11.0625 C 19.125 -7.582031 22.753906 -5.84375 27.296875 -5.84375 C 30.285156 -5.84375 32.847656 -6.613281 34.984375 -8.15625 C 37.117188 -9.695312 38.546875 -11.832031 39.265625 -14.5625 L 46.9375 -14.5625 C 46.5 -11.613281 45.429688 -8.960938 43.734375 -6.609375 C 42.035156 -4.265625 39.789062 -2.398438 37 -1.015625 C 34.21875 0.359375 30.984375 1.046875 27.296875 1.046875 Z M 27.296875 1.046875 "/></g></g></g><g clip-path="url(#62581af886)"><path fill="#ffe212" d="M 46.101562 11.363281 L 29.054688 36.882812 L 37.335938 36.867188 L 30.355469 58.976562 L 46.5625 30.792969 L 39.496094 30.792969 L 46.101562 11.363281 " fill-opacity="1" fill-rule="nonzero"/></g><g clip-path="url(#b5d5f62547)"><path fill="#fca311" d="M 46.101562 11.363281 L 35.046875 33.730469 L 41.175781 33.730469 L 30.355469 58.976562 L 46.5625 30.792969 L 39.496094 30.792969 L 46.101562 11.363281 " fill-opacity="1" fill-rule="nonzero"/></g></svg>