<svg xmlns="http://www.w3.org/2000/svg" xmlns:xlink="http://www.w3.org/1999/xlink" width="180" zoomAndPan="magnify" viewBox="0 0 135 30.000001" height="40" preserveAspectRatio="xMidYMid meet" version="1.0"><defs><g/><clipPath id="5e2509dced"><path d="M 7.15625 7.128906 L 12.257812 7.128906 L 12.257812 20.996094 L 7.15625 20.996094 Z M 7.15625 7.128906 " clip-rule="nonzero"/></clipPath><clipPath id="bba011db13"><path d="M 7.535156 7.128906 L 12.257812 7.128906 L 12.257812 20.996094 L 7.535156 20.996094 Z M 7.535156 7.128906 " clip-rule="nonzero"/></clipPath></defs><g fill="#ffffff" fill-opacity="1"><g transform="translate(2.177417, 21.413068)"><g><path d="M 7.953125 0.296875 C 6.585938 0.296875 5.410156 -0.0195312 4.421875 -0.65625 C 3.441406 -1.300781 2.6875 -2.1875 2.15625 -3.3125 C 1.625 -4.445312 1.359375 -5.738281 1.359375 -7.1875 C 1.359375 -8.664062 1.628906 -9.972656 2.171875 -11.109375 C 2.722656 -12.242188 3.488281 -13.128906 4.46875 -13.765625 C 5.445312 -14.410156 6.59375 -14.734375 7.90625 -14.734375 C 8.9375 -14.734375 9.859375 -14.539062 10.671875 -14.15625 C 11.492188 -13.78125 12.164062 -13.25 12.6875 -12.5625 C 13.21875 -11.882812 13.546875 -11.09375 13.671875 -10.1875 L 11.4375 -10.1875 C 11.257812 -10.84375 10.878906 -11.425781 10.296875 -11.9375 C 9.710938 -12.457031 8.929688 -12.71875 7.953125 -12.71875 C 6.640625 -12.71875 5.582031 -12.21875 4.78125 -11.21875 C 3.988281 -10.226562 3.59375 -8.910156 3.59375 -7.265625 C 3.59375 -5.585938 3.988281 -4.238281 4.78125 -3.21875 C 5.570312 -2.207031 6.628906 -1.703125 7.953125 -1.703125 C 8.816406 -1.703125 9.5625 -1.925781 10.1875 -2.375 C 10.8125 -2.820312 11.226562 -3.441406 11.4375 -4.234375 L 13.671875 -4.234375 C 13.546875 -3.378906 13.234375 -2.609375 12.734375 -1.921875 C 12.242188 -1.242188 11.59375 -0.703125 10.78125 -0.296875 C 9.96875 0.0976562 9.023438 0.296875 7.953125 0.296875 Z M 7.953125 0.296875 "/></g></g></g><g clip-path="url(#5e2509dced)"><path fill="#ffe212" d="M 12.121094 7.128906 L 7.15625 14.5625 L 9.570312 14.558594 L 7.535156 20.996094 L 12.257812 12.789062 L 10.199219 12.789062 L 12.121094 7.128906 " fill-opacity="1" fill-rule="nonzero"/></g><g clip-path="url(#bba011db13)"><path fill="#fca311" d="M 12.121094 7.128906 L 8.902344 13.640625 L 10.6875 13.640625 L 7.535156 20.996094 L 12.257812 12.789062 L 10.199219 12.789062 L 12.121094 7.128906 " fill-opacity="1" fill-rule="nonzero"/></g><g fill="#ffffff" fill-opacity="1"><g transform="translate(18.100974, 17.274935)"><g><path d="M 5.078125 -5.734375 C 5.046875 -6.054688 4.90625 -6.304688 4.65625 -6.484375 C 4.414062 -6.660156 4.09375 -6.75 3.6875 -6.75 C 3.269531 -6.75 2.953125 -6.660156 2.734375 -6.484375 C 2.515625 -6.316406 2.40625 -6.101562 2.40625 -5.84375 C 2.394531 -5.550781 2.515625 -5.332031 2.765625 -5.1875 C 3.023438 -5.039062 3.328125 -4.925781 3.671875 -4.84375 L 4.390625 -4.671875 C 4.859375 -4.566406 5.273438 -4.414062 5.640625 -4.21875 C 6.003906 -4.019531 6.289062 -3.757812 6.5 -3.4375 C 6.707031 -3.125 6.8125 -2.742188 6.8125 -2.296875 C 6.8125 -1.566406 6.535156 -0.984375 5.984375 -0.546875 C 5.429688 -0.109375 4.664062 0.109375 3.6875 0.109375 C 2.707031 0.109375 1.925781 -0.109375 1.34375 -0.546875 C 0.757812 -0.992188 0.457031 -1.65625 0.4375 -2.53125 L 2.09375 -2.53125 C 2.113281 -2.125 2.269531 -1.816406 2.5625 -1.609375 C 2.851562 -1.410156 3.222656 -1.3125 3.671875 -1.3125 C 4.097656 -1.3125 4.441406 -1.398438 4.703125 -1.578125 C 4.960938 -1.765625 5.09375 -2.007812 5.09375 -2.3125 C 5.09375 -2.582031 4.972656 -2.789062 4.734375 -2.9375 C 4.492188 -3.082031 4.15625 -3.207031 3.71875 -3.3125 L 2.84375 -3.53125 C 2.164062 -3.695312 1.628906 -3.957031 1.234375 -4.3125 C 0.847656 -4.664062 0.65625 -5.140625 0.65625 -5.734375 C 0.65625 -6.210938 0.785156 -6.632812 1.046875 -7 C 1.304688 -7.375 1.664062 -7.660156 2.125 -7.859375 C 2.59375 -8.066406 3.117188 -8.171875 3.703125 -8.171875 C 4.304688 -8.171875 4.828125 -8.066406 5.265625 -7.859375 C 5.710938 -7.648438 6.0625 -7.363281 6.3125 -7 C 6.5625 -6.632812 6.691406 -6.210938 6.703125 -5.734375 Z M 5.078125 -5.734375 "/></g></g></g><g fill="#ffffff" fill-opacity="1"><g transform="translate(25.355981, 17.274935)"><g><path d="M 0.671875 2.265625 L 0.671875 -6.046875 L 2.328125 -6.046875 L 2.328125 -5.03125 L 2.390625 -5.03125 C 2.472656 -5.195312 2.582031 -5.363281 2.71875 -5.53125 C 2.851562 -5.695312 3.035156 -5.835938 3.265625 -5.953125 C 3.492188 -6.066406 3.773438 -6.125 4.109375 -6.125 C 4.554688 -6.125 4.960938 -6.007812 5.328125 -5.78125 C 5.703125 -5.550781 6 -5.203125 6.21875 -4.734375 C 6.445312 -4.273438 6.5625 -3.703125 6.5625 -3.015625 C 6.5625 -2.335938 6.453125 -1.765625 6.234375 -1.296875 C 6.015625 -0.835938 5.71875 -0.488281 5.34375 -0.25 C 4.976562 -0.0195312 4.566406 0.09375 4.109375 0.09375 C 3.785156 0.09375 3.507812 0.0390625 3.28125 -0.0625 C 3.050781 -0.164062 2.863281 -0.300781 2.71875 -0.46875 C 2.582031 -0.632812 2.472656 -0.800781 2.390625 -0.96875 L 2.34375 -0.96875 L 2.34375 2.265625 Z M 2.3125 -3.015625 C 2.3125 -2.484375 2.421875 -2.050781 2.640625 -1.71875 C 2.859375 -1.394531 3.171875 -1.234375 3.578125 -1.234375 C 3.992188 -1.234375 4.304688 -1.398438 4.515625 -1.734375 C 4.734375 -2.066406 4.84375 -2.492188 4.84375 -3.015625 C 4.84375 -3.546875 4.734375 -3.972656 4.515625 -4.296875 C 4.304688 -4.617188 3.992188 -4.78125 3.578125 -4.78125 C 3.171875 -4.78125 2.859375 -4.617188 2.640625 -4.296875 C 2.421875 -3.984375 2.3125 -3.554688 2.3125 -3.015625 Z M 2.3125 -3.015625 "/></g></g></g><g fill="#ffffff" fill-opacity="1"><g transform="translate(32.363123, 17.274935)"><g><path d="M 2.390625 0.109375 C 1.816406 0.109375 1.335938 -0.0390625 0.953125 -0.34375 C 0.578125 -0.644531 0.390625 -1.09375 0.390625 -1.6875 C 0.390625 -2.132812 0.492188 -2.488281 0.703125 -2.75 C 0.910156 -3.007812 1.1875 -3.195312 1.53125 -3.3125 C 1.882812 -3.4375 2.257812 -3.515625 2.65625 -3.546875 C 3.175781 -3.597656 3.550781 -3.648438 3.78125 -3.703125 C 4.007812 -3.765625 4.125 -3.894531 4.125 -4.09375 L 4.125 -4.109375 C 4.125 -4.359375 4.046875 -4.550781 3.890625 -4.6875 C 3.734375 -4.820312 3.507812 -4.890625 3.21875 -4.890625 C 2.914062 -4.890625 2.675781 -4.820312 2.5 -4.6875 C 2.320312 -4.5625 2.203125 -4.398438 2.140625 -4.203125 L 0.59375 -4.328125 C 0.707031 -4.878906 0.992188 -5.316406 1.453125 -5.640625 C 1.910156 -5.960938 2.503906 -6.125 3.234375 -6.125 C 3.679688 -6.125 4.097656 -6.050781 4.484375 -5.90625 C 4.878906 -5.769531 5.195312 -5.550781 5.4375 -5.25 C 5.675781 -4.945312 5.796875 -4.554688 5.796875 -4.078125 L 5.796875 0 L 4.203125 0 L 4.203125 -0.84375 L 4.15625 -0.84375 C 4.007812 -0.5625 3.789062 -0.332031 3.5 -0.15625 C 3.207031 0.0195312 2.835938 0.109375 2.390625 0.109375 Z M 2.875 -1.046875 C 3.238281 -1.046875 3.535156 -1.148438 3.765625 -1.359375 C 4.003906 -1.578125 4.125 -1.84375 4.125 -2.15625 L 4.125 -2.796875 C 4.0625 -2.753906 3.960938 -2.710938 3.828125 -2.671875 C 3.691406 -2.640625 3.546875 -2.613281 3.390625 -2.59375 C 3.234375 -2.570312 3.09375 -2.550781 2.96875 -2.53125 C 2.675781 -2.488281 2.4375 -2.40625 2.25 -2.28125 C 2.070312 -2.15625 1.984375 -1.976562 1.984375 -1.75 C 1.984375 -1.507812 2.066406 -1.332031 2.234375 -1.21875 C 2.398438 -1.101562 2.613281 -1.046875 2.875 -1.046875 Z M 2.875 -1.046875 "/></g></g></g><g fill="#ffffff" fill-opacity="1"><g transform="translate(38.791912, 17.274935)"><g><path d="M 0.671875 0 L 0.671875 -6.046875 L 2.296875 -6.046875 L 2.296875 -4.984375 L 2.359375 -4.984375 C 2.460938 -5.359375 2.644531 -5.640625 2.90625 -5.828125 C 3.164062 -6.023438 3.46875 -6.125 3.8125 -6.125 C 3.96875 -6.125 4.113281 -6.101562 4.25 -6.0625 C 4.394531 -6.03125 4.523438 -5.976562 4.640625 -5.90625 L 4.125 -4.53125 C 4.050781 -4.5625 3.96875 -4.59375 3.875 -4.625 C 3.78125 -4.65625 3.675781 -4.671875 3.5625 -4.671875 C 3.21875 -4.671875 2.925781 -4.550781 2.6875 -4.3125 C 2.457031 -4.082031 2.34375 -3.785156 2.34375 -3.421875 L 2.34375 0 Z M 0.671875 0 "/></g></g></g><g fill="#ffffff" fill-opacity="1"><g transform="translate(43.540718, 17.274935)"><g><path d="M 0.671875 0 L 0.671875 -8.0625 L 2.34375 -8.0625 L 2.34375 -3.75 L 2.4375 -3.75 L 4.375 -6.046875 L 6.296875 -6.046875 L 4.046875 -3.421875 L 6.40625 0 L 4.453125 0 L 2.796875 -2.4375 L 2.34375 -1.921875 L 2.34375 0 Z M 0.671875 0 "/></g></g></g><g fill="#ffffff" fill-opacity="1"><g transform="translate(49.985238, 17.274935)"><g><path d="M 5.078125 -5.734375 C 5.046875 -6.054688 4.90625 -6.304688 4.65625 -6.484375 C 4.414062 -6.660156 4.09375 -6.75 3.6875 -6.75 C 3.269531 -6.75 2.953125 -6.660156 2.734375 -6.484375 C 2.515625 -6.316406 2.40625 -6.101562 2.40625 -5.84375 C 2.394531 -5.550781 2.515625 -5.332031 2.765625 -5.1875 C 3.023438 -5.039062 3.328125 -4.925781 3.671875 -4.84375 L 4.390625 -4.671875 C 4.859375 -4.566406 5.273438 -4.414062 5.640625 -4.21875 C 6.003906 -4.019531 6.289062 -3.757812 6.5 -3.4375 C 6.707031 -3.125 6.8125 -2.742188 6.8125 -2.296875 C 6.8125 -1.566406 6.535156 -0.984375 5.984375 -0.546875 C 5.429688 -0.109375 4.664062 0.109375 3.6875 0.109375 C 2.707031 0.109375 1.925781 -0.109375 1.34375 -0.546875 C 0.757812 -0.992188 0.457031 -1.65625 0.4375 -2.53125 L 2.09375 -2.53125 C 2.113281 -2.125 2.269531 -1.816406 2.5625 -1.609375 C 2.851562 -1.410156 3.222656 -1.3125 3.671875 -1.3125 C 4.097656 -1.3125 4.441406 -1.398438 4.703125 -1.578125 C 4.960938 -1.765625 5.09375 -2.007812 5.09375 -2.3125 C 5.09375 -2.582031 4.972656 -2.789062 4.734375 -2.9375 C 4.492188 -3.082031 4.15625 -3.207031 3.71875 -3.3125 L 2.84375 -3.53125 C 2.164062 -3.695312 1.628906 -3.957031 1.234375 -4.3125 C 0.847656 -4.664062 0.65625 -5.140625 0.65625 -5.734375 C 0.65625 -6.210938 0.785156 -6.632812 1.046875 -7 C 1.304688 -7.375 1.664062 -7.660156 2.125 -7.859375 C 2.59375 -8.066406 3.117188 -8.171875 3.703125 -8.171875 C 4.304688 -8.171875 4.828125 -8.066406 5.265625 -7.859375 C 5.710938 -7.648438 6.0625 -7.363281 6.3125 -7 C 6.5625 -6.632812 6.691406 -6.210938 6.703125 -5.734375 Z M 5.078125 -5.734375 "/></g></g></g><g fill="#ffffff" fill-opacity="1"><g transform="translate(57.240245, 17.274935)"><g><path d="M 3.40625 0.125 C 2.789062 0.125 2.257812 -0.00390625 1.8125 -0.265625 C 1.375 -0.535156 1.03125 -0.898438 0.78125 -1.359375 C 0.539062 -1.828125 0.421875 -2.375 0.421875 -3 C 0.421875 -3.625 0.539062 -4.171875 0.78125 -4.640625 C 1.03125 -5.109375 1.375 -5.472656 1.8125 -5.734375 C 2.257812 -5.992188 2.789062 -6.125 3.40625 -6.125 C 4.007812 -6.125 4.535156 -5.992188 4.984375 -5.734375 C 5.429688 -5.472656 5.773438 -5.109375 6.015625 -4.640625 C 6.253906 -4.171875 6.375 -3.625 6.375 -3 C 6.375 -2.375 6.253906 -1.828125 6.015625 -1.359375 C 5.773438 -0.898438 5.429688 -0.535156 4.984375 -0.265625 C 4.535156 -0.00390625 4.007812 0.125 3.40625 0.125 Z M 3.40625 -1.1875 C 3.820312 -1.1875 4.132812 -1.359375 4.34375 -1.703125 C 4.5625 -2.046875 4.671875 -2.484375 4.671875 -3.015625 C 4.671875 -3.535156 4.5625 -3.96875 4.34375 -4.3125 C 4.132812 -4.664062 3.820312 -4.84375 3.40625 -4.84375 C 2.976562 -4.84375 2.65625 -4.664062 2.4375 -4.3125 C 2.226562 -3.96875 2.125 -3.535156 2.125 -3.015625 C 2.125 -2.484375 2.226562 -2.046875 2.4375 -1.703125 C 2.65625 -1.359375 2.976562 -1.1875 3.40625 -1.1875 Z M 3.40625 -1.1875 "/></g></g></g><g fill="#ffffff" fill-opacity="1"><g transform="translate(64.038864, 17.274935)"><g><path d="M 4.546875 -2.578125 L 4.546875 -6.046875 L 6.21875 -6.046875 L 6.21875 0 L 4.609375 0 L 4.609375 -1.09375 L 4.546875 -1.09375 C 4.410156 -0.738281 4.179688 -0.453125 3.859375 -0.234375 C 3.546875 -0.0234375 3.164062 0.078125 2.71875 0.078125 C 2.101562 0.078125 1.609375 -0.125 1.234375 -0.53125 C 0.859375 -0.9375 0.671875 -1.488281 0.671875 -2.1875 L 0.671875 -6.046875 L 2.34375 -6.046875 L 2.34375 -2.5 C 2.34375 -2.132812 2.4375 -1.847656 2.625 -1.640625 C 2.820312 -1.441406 3.078125 -1.34375 3.390625 -1.34375 C 3.691406 -1.34375 3.957031 -1.445312 4.1875 -1.65625 C 4.425781 -1.863281 4.546875 -2.171875 4.546875 -2.578125 Z M 4.546875 -2.578125 "/></g></g></g><g fill="#ffffff" fill-opacity="1"><g transform="translate(70.927976, 17.274935)"><g><path d="M 0.671875 0 L 0.671875 -6.046875 L 2.296875 -6.046875 L 2.296875 -4.984375 L 2.359375 -4.984375 C 2.460938 -5.359375 2.644531 -5.640625 2.90625 -5.828125 C 3.164062 -6.023438 3.46875 -6.125 3.8125 -6.125 C 3.96875 -6.125 4.113281 -6.101562 4.25 -6.0625 C 4.394531 -6.03125 4.523438 -5.976562 4.640625 -5.90625 L 4.125 -4.53125 C 4.050781 -4.5625 3.96875 -4.59375 3.875 -4.625 C 3.78125 -4.65625 3.675781 -4.671875 3.5625 -4.671875 C 3.21875 -4.671875 2.925781 -4.550781 2.6875 -4.3125 C 2.457031 -4.082031 2.34375 -3.785156 2.34375 -3.421875 L 2.34375 0 Z M 0.671875 0 "/></g></g></g><g fill="#ffffff" fill-opacity="1"><g transform="translate(75.676782, 17.274935)"><g><path d="M 3.40625 0.125 C 2.78125 0.125 2.242188 -0.00390625 1.796875 -0.265625 C 1.359375 -0.535156 1.019531 -0.90625 0.78125 -1.375 C 0.539062 -1.84375 0.421875 -2.382812 0.421875 -3 C 0.421875 -3.613281 0.539062 -4.15625 0.78125 -4.625 C 1.019531 -5.09375 1.359375 -5.457031 1.796875 -5.71875 C 2.242188 -5.988281 2.773438 -6.125 3.390625 -6.125 C 3.921875 -6.125 4.382812 -6.023438 4.78125 -5.828125 C 5.175781 -5.640625 5.488281 -5.375 5.71875 -5.03125 C 5.945312 -4.6875 6.070312 -4.28125 6.09375 -3.8125 L 4.515625 -3.8125 C 4.472656 -4.113281 4.351562 -4.351562 4.15625 -4.53125 C 3.96875 -4.71875 3.722656 -4.8125 3.421875 -4.8125 C 3.035156 -4.8125 2.722656 -4.65625 2.484375 -4.34375 C 2.242188 -4.03125 2.125 -3.585938 2.125 -3.015625 C 2.125 -2.441406 2.238281 -1.992188 2.46875 -1.671875 C 2.707031 -1.359375 3.023438 -1.203125 3.421875 -1.203125 C 3.703125 -1.203125 3.941406 -1.289062 4.140625 -1.46875 C 4.335938 -1.644531 4.460938 -1.894531 4.515625 -2.21875 L 6.09375 -2.21875 C 6.070312 -1.75 5.945312 -1.335938 5.71875 -0.984375 C 5.5 -0.640625 5.191406 -0.367188 4.796875 -0.171875 C 4.398438 0.0234375 3.9375 0.125 3.40625 0.125 Z M 3.40625 0.125 "/></g></g></g><g fill="#ffffff" fill-opacity="1"><g transform="translate(82.184258, 17.274935)"><g><path d="M 3.421875 0.125 C 2.804688 0.125 2.273438 0 1.828125 -0.25 C 1.378906 -0.507812 1.03125 -0.867188 0.78125 -1.328125 C 0.539062 -1.796875 0.421875 -2.351562 0.421875 -3 C 0.421875 -3.613281 0.539062 -4.15625 0.78125 -4.625 C 1.03125 -5.09375 1.375 -5.457031 1.8125 -5.71875 C 2.25 -5.988281 2.765625 -6.125 3.359375 -6.125 C 3.890625 -6.125 4.367188 -6.007812 4.796875 -5.78125 C 5.222656 -5.550781 5.5625 -5.207031 5.8125 -4.75 C 6.070312 -4.300781 6.203125 -3.734375 6.203125 -3.046875 L 6.203125 -2.59375 L 2.078125 -2.59375 C 2.078125 -2.132812 2.203125 -1.773438 2.453125 -1.515625 C 2.703125 -1.265625 3.035156 -1.140625 3.453125 -1.140625 C 3.734375 -1.140625 3.972656 -1.195312 4.171875 -1.3125 C 4.378906 -1.425781 4.523438 -1.597656 4.609375 -1.828125 L 6.15625 -1.734375 C 6.039062 -1.171875 5.742188 -0.71875 5.265625 -0.375 C 4.785156 -0.0390625 4.171875 0.125 3.421875 0.125 Z M 2.078125 -3.625 L 4.625 -3.625 C 4.613281 -3.988281 4.492188 -4.285156 4.265625 -4.515625 C 4.046875 -4.753906 3.753906 -4.875 3.390625 -4.875 C 3.015625 -4.875 2.707031 -4.75 2.46875 -4.5 C 2.226562 -4.257812 2.097656 -3.96875 2.078125 -3.625 Z M 2.078125 -3.625 "/></g></g></g><g fill="#ffffff" fill-opacity="1"><g transform="translate(88.805828, 17.274935)"><g/></g></g><g fill="#ffffff" fill-opacity="1"><g transform="translate(91.374984, 17.274935)"><g><path d="M 7.8125 -5.234375 L 6.078125 -5.234375 C 6.015625 -5.679688 5.828125 -6.03125 5.515625 -6.28125 C 5.203125 -6.53125 4.8125 -6.65625 4.34375 -6.65625 C 3.726562 -6.65625 3.226562 -6.425781 2.84375 -5.96875 C 2.46875 -5.507812 2.28125 -4.863281 2.28125 -4.03125 C 2.28125 -3.164062 2.46875 -2.507812 2.84375 -2.0625 C 3.226562 -1.613281 3.726562 -1.390625 4.34375 -1.390625 C 4.789062 -1.390625 5.171875 -1.507812 5.484375 -1.75 C 5.804688 -1.988281 6.003906 -2.320312 6.078125 -2.75 L 7.8125 -2.75 C 7.75 -2.25 7.570312 -1.78125 7.28125 -1.34375 C 6.988281 -0.914062 6.59375 -0.566406 6.09375 -0.296875 C 5.59375 -0.0234375 5 0.109375 4.3125 0.109375 C 3.59375 0.109375 2.945312 -0.0507812 2.375 -0.375 C 1.8125 -0.695312 1.367188 -1.164062 1.046875 -1.78125 C 0.722656 -2.40625 0.5625 -3.15625 0.5625 -4.03125 C 0.5625 -4.90625 0.722656 -5.648438 1.046875 -6.265625 C 1.378906 -6.878906 1.828125 -7.347656 2.390625 -7.671875 C 2.960938 -8.003906 3.601562 -8.171875 4.3125 -8.171875 C 4.9375 -8.171875 5.5 -8.054688 6 -7.828125 C 6.5 -7.597656 6.90625 -7.265625 7.21875 -6.828125 C 7.539062 -6.390625 7.738281 -5.859375 7.8125 -5.234375 Z M 7.8125 -5.234375 "/></g></g></g><g fill="#ffffff" fill-opacity="1"><g transform="translate(99.70801, 17.274935)"><g><path d="M 3.421875 0.125 C 2.804688 0.125 2.273438 0 1.828125 -0.25 C 1.378906 -0.507812 1.03125 -0.867188 0.78125 -1.328125 C 0.539062 -1.796875 0.421875 -2.351562 0.421875 -3 C 0.421875 -3.613281 0.539062 -4.15625 0.78125 -4.625 C 1.03125 -5.09375 1.375 -5.457031 1.8125 -5.71875 C 2.25 -5.988281 2.765625 -6.125 3.359375 -6.125 C 3.890625 -6.125 4.367188 -6.007812 4.796875 -5.78125 C 5.222656 -5.550781 5.5625 -5.207031 5.8125 -4.75 C 6.070312 -4.300781 6.203125 -3.734375 6.203125 -3.046875 L 6.203125 -2.59375 L 2.078125 -2.59375 C 2.078125 -2.132812 2.203125 -1.773438 2.453125 -1.515625 C 2.703125 -1.265625 3.035156 -1.140625 3.453125 -1.140625 C 3.734375 -1.140625 3.972656 -1.195312 4.171875 -1.3125 C 4.378906 -1.425781 4.523438 -1.597656 4.609375 -1.828125 L 6.15625 -1.734375 C 6.039062 -1.171875 5.742188 -0.71875 5.265625 -0.375 C 4.785156 -0.0390625 4.171875 0.125 3.421875 0.125 Z M 2.078125 -3.625 L 4.625 -3.625 C 4.613281 -3.988281 4.492188 -4.285156 4.265625 -4.515625 C 4.046875 -4.753906 3.753906 -4.875 3.390625 -4.875 C 3.015625 -4.875 2.707031 -4.75 2.46875 -4.5 C 2.226562 -4.257812 2.097656 -3.96875 2.078125 -3.625 Z M 2.078125 -3.625 "/></g></g></g><g fill="#ffffff" fill-opacity="1"><g transform="translate(106.329579, 17.274935)"><g><path d="M 2.34375 -3.5 L 2.34375 0 L 0.671875 0 L 0.671875 -6.046875 L 2.265625 -6.046875 L 2.265625 -4.96875 L 2.34375 -4.96875 C 2.476562 -5.320312 2.703125 -5.601562 3.015625 -5.8125 C 3.328125 -6.019531 3.707031 -6.125 4.15625 -6.125 C 4.78125 -6.125 5.28125 -5.921875 5.65625 -5.515625 C 6.039062 -5.109375 6.234375 -4.550781 6.234375 -3.84375 L 6.234375 0 L 4.5625 0 L 4.5625 -3.546875 C 4.5625 -3.921875 4.46875 -4.210938 4.28125 -4.421875 C 4.09375 -4.628906 3.828125 -4.734375 3.484375 -4.734375 C 3.148438 -4.734375 2.875 -4.625 2.65625 -4.40625 C 2.445312 -4.1875 2.34375 -3.882812 2.34375 -3.5 Z M 2.34375 -3.5 "/></g></g></g><g fill="#ffffff" fill-opacity="1"><g transform="translate(113.218691, 17.274935)"><g><path d="M 3.875 -6.046875 L 3.875 -4.78125 L 2.75 -4.78125 L 2.75 -1.859375 C 2.75 -1.628906 2.800781 -1.472656 2.90625 -1.390625 C 3.007812 -1.304688 3.144531 -1.265625 3.3125 -1.265625 C 3.394531 -1.265625 3.472656 -1.269531 3.546875 -1.28125 C 3.628906 -1.300781 3.691406 -1.316406 3.734375 -1.328125 L 4 -0.078125 C 3.90625 -0.046875 3.78125 -0.015625 3.625 0.015625 C 3.476562 0.0546875 3.296875 0.078125 3.078125 0.078125 C 2.472656 0.109375 1.984375 -0.0195312 1.609375 -0.3125 C 1.242188 -0.601562 1.0625 -1.046875 1.0625 -1.640625 L 1.0625 -4.78125 L 0.25 -4.78125 L 0.25 -6.046875 L 1.0625 -6.046875 L 1.0625 -7.484375 L 2.75 -7.484375 L 2.75 -6.046875 Z M 3.875 -6.046875 "/></g></g></g><g fill="#ffffff" fill-opacity="1"><g transform="translate(117.522905, 17.274935)"><g><path d="M 0.671875 0 L 0.671875 -6.046875 L 2.296875 -6.046875 L 2.296875 -4.984375 L 2.359375 -4.984375 C 2.460938 -5.359375 2.644531 -5.640625 2.90625 -5.828125 C 3.164062 -6.023438 3.46875 -6.125 3.8125 -6.125 C 3.96875 -6.125 4.113281 -6.101562 4.25 -6.0625 C 4.394531 -6.03125 4.523438 -5.976562 4.640625 -5.90625 L 4.125 -4.53125 C 4.050781 -4.5625 3.96875 -4.59375 3.875 -4.625 C 3.78125 -4.65625 3.675781 -4.671875 3.5625 -4.671875 C 3.21875 -4.671875 2.925781 -4.550781 2.6875 -4.3125 C 2.457031 -4.082031 2.34375 -3.785156 2.34375 -3.421875 L 2.34375 0 Z M 0.671875 0 "/></g></g></g><g fill="#ffffff" fill-opacity="1"><g transform="translate(122.271711, 17.274935)"><g><path d="M 2.390625 0.109375 C 1.816406 0.109375 1.335938 -0.0390625 0.953125 -0.34375 C 0.578125 -0.644531 0.390625 -1.09375 0.390625 -1.6875 C 0.390625 -2.132812 0.492188 -2.488281 0.703125 -2.75 C 0.910156 -3.007812 1.1875 -3.195312 1.53125 -3.3125 C 1.882812 -3.4375 2.257812 -3.515625 2.65625 -3.546875 C 3.175781 -3.597656 3.550781 -3.648438 3.78125 -3.703125 C 4.007812 -3.765625 4.125 -3.894531 4.125 -4.09375 L 4.125 -4.109375 C 4.125 -4.359375 4.046875 -4.550781 3.890625 -4.6875 C 3.734375 -4.820312 3.507812 -4.890625 3.21875 -4.890625 C 2.914062 -4.890625 2.675781 -4.820312 2.5 -4.6875 C 2.320312 -4.5625 2.203125 -4.398438 2.140625 -4.203125 L 0.59375 -4.328125 C 0.707031 -4.878906 0.992188 -5.316406 1.453125 -5.640625 C 1.910156 -5.960938 2.503906 -6.125 3.234375 -6.125 C 3.679688 -6.125 4.097656 -6.050781 4.484375 -5.90625 C 4.878906 -5.769531 5.195312 -5.550781 5.4375 -5.25 C 5.675781 -4.945312 5.796875 -4.554688 5.796875 -4.078125 L 5.796875 0 L 4.203125 0 L 4.203125 -0.84375 L 4.15625 -0.84375 C 4.007812 -0.5625 3.789062 -0.332031 3.5 -0.15625 C 3.207031 0.0195312 2.835938 0.109375 2.390625 0.109375 Z M 2.875 -1.046875 C 3.238281 -1.046875 3.535156 -1.148438 3.765625 -1.359375 C 4.003906 -1.578125 4.125 -1.84375 4.125 -2.15625 L 4.125 -2.796875 C 4.0625 -2.753906 3.960938 -2.710938 3.828125 -2.671875 C 3.691406 -2.640625 3.546875 -2.613281 3.390625 -2.59375 C 3.234375 -2.570312 3.09375 -2.550781 2.96875 -2.53125 C 2.675781 -2.488281 2.4375 -2.40625 2.25 -2.28125 C 2.070312 -2.15625 1.984375 -1.976562 1.984375 -1.75 C 1.984375 -1.507812 2.066406 -1.332031 2.234375 -1.21875 C 2.398438 -1.101562 2.613281 -1.046875 2.875 -1.046875 Z M 2.875 -1.046875 "/></g></g></g><g fill="#ffffff" fill-opacity="1"><g transform="translate(128.7005, 17.274935)"><g><path d="M 2.34375 -8.0625 L 2.34375 0 L 0.671875 0 L 0.671875 -8.0625 Z M 2.34375 -8.0625 "/></g></g></g></svg>