<svg xmlns="http://www.w3.org/2000/svg" xmlns:xlink="http://www.w3.org/1999/xlink" width="100" zoomAndPan="magnify" viewBox="0 0 75 44.999999" height="60" preserveAspectRatio="xMidYMid meet" version="1.0"><defs><g/><clipPath id="f951fc541a"><path d="M 10.425781 6.65625 L 21.101562 6.65625 L 21.101562 35.679688 L 10.425781 35.679688 Z M 10.425781 6.65625 " clip-rule="nonzero"/></clipPath><clipPath id="ac16a8e531"><path d="M 11.21875 6.65625 L 21.101562 6.65625 L 21.101562 35.679688 L 11.21875 35.679688 Z M 11.21875 6.65625 " clip-rule="nonzero"/></clipPath></defs><g fill="#ffffff" fill-opacity="1"><g transform="translate(0.000000833333, 36.556977)"><g><path d="M 16.640625 0.640625 C 13.785156 0.640625 11.328125 -0.03125 9.265625 -1.375 C 7.210938 -2.726562 5.628906 -4.585938 4.515625 -6.953125 C 3.410156 -9.316406 2.859375 -12.019531 2.859375 -15.0625 C 2.859375 -18.15625 3.425781 -20.882812 4.5625 -23.25 C 5.707031 -25.625 7.304688 -27.476562 9.359375 -28.8125 C 11.410156 -30.15625 13.8125 -30.828125 16.5625 -30.828125 C 18.707031 -30.828125 20.632812 -30.429688 22.34375 -29.640625 C 24.0625 -28.847656 25.46875 -27.738281 26.5625 -26.3125 C 27.664062 -24.882812 28.347656 -23.21875 28.609375 -21.3125 L 23.9375 -21.3125 C 23.582031 -22.707031 22.789062 -23.941406 21.5625 -25.015625 C 20.34375 -26.085938 18.703125 -26.625 16.640625 -26.625 C 13.910156 -26.625 11.707031 -25.582031 10.03125 -23.5 C 8.363281 -21.425781 7.53125 -18.664062 7.53125 -15.21875 C 7.53125 -11.6875 8.351562 -8.859375 10 -6.734375 C 11.65625 -4.617188 13.867188 -3.5625 16.640625 -3.5625 C 18.460938 -3.5625 20.023438 -4.03125 21.328125 -4.96875 C 22.628906 -5.90625 23.5 -7.207031 23.9375 -8.875 L 28.609375 -8.875 C 28.347656 -7.082031 27.695312 -5.46875 26.65625 -4.03125 C 25.625 -2.59375 24.257812 -1.453125 22.5625 -0.609375 C 20.863281 0.222656 18.890625 0.640625 16.640625 0.640625 Z M 16.640625 0.640625 "/></g></g></g><g clip-path="url(#f951fc541a)"><path fill="#ffe212" d="M 20.820312 6.65625 L 10.425781 22.214844 L 15.472656 22.203125 L 11.21875 35.679688 L 21.101562 18.5 L 16.789062 18.5 L 20.820312 6.65625 " fill-opacity="1" fill-rule="nonzero"/></g><g clip-path="url(#ac16a8e531)"><path fill="#fca311" d="M 20.820312 6.65625 L 14.078125 20.289062 L 17.816406 20.289062 L 11.21875 35.679688 L 21.101562 18.5 L 16.789062 18.5 L 20.820312 6.65625 " fill-opacity="1" fill-rule="nonzero"/></g><g fill="#fca311" fill-opacity="1"><g transform="translate(20.613368, 23.586269)"><g><path d="M 0.53125 1.796875 L 0.53125 -4.796875 L 1.84375 -4.796875 L 1.84375 -4 L 1.90625 -4 C 1.96875 -4.125 2.050781 -4.253906 2.15625 -4.390625 C 2.269531 -4.523438 2.414062 -4.632812 2.59375 -4.71875 C 2.78125 -4.8125 3.003906 -4.859375 3.265625 -4.859375 C 3.617188 -4.859375 3.941406 -4.765625 4.234375 -4.578125 C 4.523438 -4.398438 4.757812 -4.128906 4.9375 -3.765625 C 5.113281 -3.398438 5.203125 -2.941406 5.203125 -2.390625 C 5.203125 -1.859375 5.113281 -1.40625 4.9375 -1.03125 C 4.769531 -0.664062 4.539062 -0.390625 4.25 -0.203125 C 3.957031 -0.015625 3.628906 0.078125 3.265625 0.078125 C 3.003906 0.078125 2.785156 0.0351562 2.609375 -0.046875 C 2.429688 -0.128906 2.285156 -0.234375 2.171875 -0.359375 C 2.054688 -0.492188 1.96875 -0.628906 1.90625 -0.765625 L 1.859375 -0.765625 L 1.859375 1.796875 Z M 1.828125 -2.40625 C 1.828125 -1.976562 1.914062 -1.632812 2.09375 -1.375 C 2.269531 -1.113281 2.519531 -0.984375 2.84375 -0.984375 C 3.164062 -0.984375 3.414062 -1.113281 3.59375 -1.375 C 3.769531 -1.632812 3.859375 -1.976562 3.859375 -2.40625 C 3.859375 -2.820312 3.769531 -3.15625 3.59375 -3.40625 C 3.425781 -3.664062 3.175781 -3.796875 2.84375 -3.796875 C 2.519531 -3.796875 2.269531 -3.671875 2.09375 -3.421875 C 1.914062 -3.171875 1.828125 -2.832031 1.828125 -2.40625 Z M 1.828125 -2.40625 "/></g></g></g><g fill="#fca311" fill-opacity="1"><g transform="translate(26.180772, 23.586269)"><g><path d="M 1.90625 0.09375 C 1.445312 0.09375 1.066406 -0.0234375 0.765625 -0.265625 C 0.460938 -0.503906 0.3125 -0.863281 0.3125 -1.34375 C 0.3125 -1.695312 0.394531 -1.972656 0.5625 -2.171875 C 0.726562 -2.378906 0.945312 -2.53125 1.21875 -2.625 C 1.5 -2.726562 1.796875 -2.789062 2.109375 -2.8125 C 2.523438 -2.851562 2.820312 -2.894531 3 -2.9375 C 3.175781 -2.988281 3.265625 -3.09375 3.265625 -3.25 L 3.265625 -3.265625 C 3.265625 -3.460938 3.203125 -3.613281 3.078125 -3.71875 C 2.960938 -3.832031 2.789062 -3.890625 2.5625 -3.890625 C 2.320312 -3.890625 2.128906 -3.835938 1.984375 -3.734375 C 1.847656 -3.628906 1.753906 -3.5 1.703125 -3.34375 L 0.46875 -3.4375 C 0.5625 -3.875 0.789062 -4.21875 1.15625 -4.46875 C 1.519531 -4.726562 1.988281 -4.859375 2.5625 -4.859375 C 2.914062 -4.859375 3.25 -4.800781 3.5625 -4.6875 C 3.875 -4.582031 4.125 -4.410156 4.3125 -4.171875 C 4.507812 -3.929688 4.609375 -3.617188 4.609375 -3.234375 L 4.609375 0 L 3.34375 0 L 3.34375 -0.671875 L 3.296875 -0.671875 C 3.179688 -0.441406 3.007812 -0.253906 2.78125 -0.109375 C 2.550781 0.0234375 2.257812 0.09375 1.90625 0.09375 Z M 2.28125 -0.828125 C 2.570312 -0.828125 2.8125 -0.910156 3 -1.078125 C 3.1875 -1.253906 3.28125 -1.46875 3.28125 -1.71875 L 3.28125 -2.21875 C 3.226562 -2.1875 3.144531 -2.15625 3.03125 -2.125 C 2.925781 -2.101562 2.8125 -2.082031 2.6875 -2.0625 C 2.5625 -2.039062 2.453125 -2.023438 2.359375 -2.015625 C 2.117188 -1.972656 1.925781 -1.90625 1.78125 -1.8125 C 1.644531 -1.71875 1.578125 -1.578125 1.578125 -1.390625 C 1.578125 -1.203125 1.640625 -1.0625 1.765625 -0.96875 C 1.898438 -0.875 2.070312 -0.828125 2.28125 -0.828125 Z M 2.28125 -0.828125 "/></g></g></g><g fill="#fca311" fill-opacity="1"><g transform="translate(31.288656, 23.586269)"><g><path d="M 0.53125 0 L 0.53125 -4.796875 L 1.828125 -4.796875 L 1.828125 -3.96875 L 1.875 -3.96875 C 1.957031 -4.257812 2.101562 -4.484375 2.3125 -4.640625 C 2.519531 -4.796875 2.757812 -4.875 3.03125 -4.875 C 3.15625 -4.875 3.269531 -4.859375 3.375 -4.828125 C 3.488281 -4.796875 3.59375 -4.75 3.6875 -4.6875 L 3.28125 -3.59375 C 3.21875 -3.625 3.148438 -3.648438 3.078125 -3.671875 C 3.003906 -3.691406 2.921875 -3.703125 2.828125 -3.703125 C 2.554688 -3.703125 2.328125 -3.609375 2.140625 -3.421875 C 1.953125 -3.242188 1.859375 -3.007812 1.859375 -2.71875 L 1.859375 0 Z M 0.53125 0 "/></g></g></g><g fill="#fca311" fill-opacity="1"><g transform="translate(35.061738, 23.586269)"><g><path d="M 0.53125 0 L 0.53125 -6.390625 L 1.859375 -6.390625 L 1.859375 -2.984375 L 1.9375 -2.984375 L 3.46875 -4.796875 L 5 -4.796875 L 3.21875 -2.71875 L 5.09375 0 L 3.53125 0 L 2.21875 -1.9375 L 1.859375 -1.53125 L 1.859375 0 Z M 0.53125 0 "/></g></g></g><g fill="#fca311" fill-opacity="1"><g transform="translate(40.182125, 23.586269)"><g><path d="M 4.03125 -4.5625 C 4 -4.8125 3.890625 -5.003906 3.703125 -5.140625 C 3.515625 -5.285156 3.257812 -5.359375 2.9375 -5.359375 C 2.601562 -5.359375 2.347656 -5.289062 2.171875 -5.15625 C 1.992188 -5.019531 1.90625 -4.847656 1.90625 -4.640625 C 1.90625 -4.410156 2.003906 -4.234375 2.203125 -4.109375 C 2.398438 -3.992188 2.640625 -3.90625 2.921875 -3.84375 L 3.5 -3.703125 C 3.863281 -3.617188 4.1875 -3.5 4.46875 -3.34375 C 4.757812 -3.1875 4.988281 -2.984375 5.15625 -2.734375 C 5.320312 -2.484375 5.40625 -2.179688 5.40625 -1.828125 C 5.40625 -1.242188 5.1875 -0.773438 4.75 -0.421875 C 4.3125 -0.078125 3.703125 0.09375 2.921875 0.09375 C 2.148438 0.09375 1.53125 -0.0820312 1.0625 -0.4375 C 0.601562 -0.789062 0.363281 -1.316406 0.34375 -2.015625 L 1.65625 -2.015625 C 1.675781 -1.691406 1.800781 -1.445312 2.03125 -1.28125 C 2.269531 -1.125 2.5625 -1.046875 2.90625 -1.046875 C 3.25 -1.046875 3.523438 -1.117188 3.734375 -1.265625 C 3.941406 -1.410156 4.046875 -1.597656 4.046875 -1.828125 C 4.046875 -2.046875 3.953125 -2.210938 3.765625 -2.328125 C 3.578125 -2.441406 3.304688 -2.539062 2.953125 -2.625 L 2.265625 -2.8125 C 1.722656 -2.9375 1.296875 -3.140625 0.984375 -3.421875 C 0.671875 -3.703125 0.515625 -4.078125 0.515625 -4.546875 C 0.515625 -4.929688 0.617188 -5.269531 0.828125 -5.5625 C 1.035156 -5.851562 1.320312 -6.078125 1.6875 -6.234375 C 2.0625 -6.398438 2.476562 -6.484375 2.9375 -6.484375 C 3.414062 -6.484375 3.832031 -6.398438 4.1875 -6.234375 C 4.539062 -6.078125 4.816406 -5.851562 5.015625 -5.5625 C 5.210938 -5.269531 5.316406 -4.9375 5.328125 -4.5625 Z M 4.03125 -4.5625 "/></g></g></g><g fill="#fca311" fill-opacity="1"><g transform="translate(45.946466, 23.586269)"><g><path d="M 2.703125 0.09375 C 2.210938 0.09375 1.789062 -0.0078125 1.4375 -0.21875 C 1.082031 -0.425781 0.8125 -0.710938 0.625 -1.078125 C 0.4375 -1.453125 0.34375 -1.882812 0.34375 -2.375 C 0.34375 -2.875 0.4375 -3.304688 0.625 -3.671875 C 0.8125 -4.046875 1.082031 -4.335938 1.4375 -4.546875 C 1.789062 -4.753906 2.210938 -4.859375 2.703125 -4.859375 C 3.179688 -4.859375 3.597656 -4.753906 3.953125 -4.546875 C 4.304688 -4.335938 4.578125 -4.046875 4.765625 -3.671875 C 4.960938 -3.304688 5.0625 -2.875 5.0625 -2.375 C 5.0625 -1.882812 4.960938 -1.453125 4.765625 -1.078125 C 4.578125 -0.710938 4.304688 -0.425781 3.953125 -0.21875 C 3.597656 -0.0078125 3.179688 0.09375 2.703125 0.09375 Z M 2.703125 -0.9375 C 3.035156 -0.9375 3.285156 -1.070312 3.453125 -1.34375 C 3.617188 -1.625 3.703125 -1.972656 3.703125 -2.390625 C 3.703125 -2.804688 3.617188 -3.148438 3.453125 -3.421875 C 3.285156 -3.703125 3.035156 -3.84375 2.703125 -3.84375 C 2.367188 -3.84375 2.113281 -3.703125 1.9375 -3.421875 C 1.769531 -3.148438 1.6875 -2.804688 1.6875 -2.390625 C 1.6875 -1.972656 1.769531 -1.625 1.9375 -1.34375 C 2.113281 -1.070312 2.367188 -0.9375 2.703125 -0.9375 Z M 2.703125 -0.9375 "/></g></g></g><g fill="#fca311" fill-opacity="1"><g transform="translate(51.348193, 23.586269)"><g><path d="M 3.609375 -2.046875 L 3.609375 -4.796875 L 4.9375 -4.796875 L 4.9375 0 L 3.65625 0 L 3.65625 -0.875 L 3.609375 -0.875 C 3.503906 -0.59375 3.328125 -0.363281 3.078125 -0.1875 C 2.828125 -0.0195312 2.519531 0.0625 2.15625 0.0625 C 1.675781 0.0625 1.285156 -0.0976562 0.984375 -0.421875 C 0.679688 -0.742188 0.53125 -1.1875 0.53125 -1.75 L 0.53125 -4.796875 L 1.859375 -4.796875 L 1.859375 -1.984375 C 1.859375 -1.703125 1.929688 -1.476562 2.078125 -1.3125 C 2.234375 -1.144531 2.4375 -1.0625 2.6875 -1.0625 C 2.925781 -1.0625 3.140625 -1.144531 3.328125 -1.3125 C 3.515625 -1.476562 3.609375 -1.722656 3.609375 -2.046875 Z M 3.609375 -2.046875 "/></g></g></g><g fill="#fca311" fill-opacity="1"><g transform="translate(56.821818, 23.586269)"><g><path d="M 0.53125 0 L 0.53125 -4.796875 L 1.828125 -4.796875 L 1.828125 -3.96875 L 1.875 -3.96875 C 1.957031 -4.257812 2.101562 -4.484375 2.3125 -4.640625 C 2.519531 -4.796875 2.757812 -4.875 3.03125 -4.875 C 3.15625 -4.875 3.269531 -4.859375 3.375 -4.828125 C 3.488281 -4.796875 3.59375 -4.75 3.6875 -4.6875 L 3.28125 -3.59375 C 3.21875 -3.625 3.148438 -3.648438 3.078125 -3.671875 C 3.003906 -3.691406 2.921875 -3.703125 2.828125 -3.703125 C 2.554688 -3.703125 2.328125 -3.609375 2.140625 -3.421875 C 1.953125 -3.242188 1.859375 -3.007812 1.859375 -2.71875 L 1.859375 0 Z M 0.53125 0 "/></g></g></g><g fill="#fca311" fill-opacity="1"><g transform="translate(60.5949, 23.586269)"><g><path d="M 2.703125 0.09375 C 2.210938 0.09375 1.789062 -0.0078125 1.4375 -0.21875 C 1.082031 -0.425781 0.8125 -0.71875 0.625 -1.09375 C 0.4375 -1.46875 0.34375 -1.894531 0.34375 -2.375 C 0.34375 -2.875 0.4375 -3.304688 0.625 -3.671875 C 0.8125 -4.046875 1.082031 -4.335938 1.4375 -4.546875 C 1.789062 -4.753906 2.207031 -4.859375 2.6875 -4.859375 C 3.113281 -4.859375 3.484375 -4.78125 3.796875 -4.625 C 4.109375 -4.476562 4.351562 -4.265625 4.53125 -3.984375 C 4.71875 -3.710938 4.820312 -3.394531 4.84375 -3.03125 L 3.59375 -3.03125 C 3.550781 -3.269531 3.453125 -3.460938 3.296875 -3.609375 C 3.148438 -3.753906 2.957031 -3.828125 2.71875 -3.828125 C 2.40625 -3.828125 2.15625 -3.703125 1.96875 -3.453125 C 1.78125 -3.203125 1.6875 -2.851562 1.6875 -2.40625 C 1.6875 -1.945312 1.78125 -1.585938 1.96875 -1.328125 C 2.15625 -1.078125 2.40625 -0.953125 2.71875 -0.953125 C 2.945312 -0.953125 3.140625 -1.019531 3.296875 -1.15625 C 3.453125 -1.300781 3.550781 -1.503906 3.59375 -1.765625 L 4.84375 -1.765625 C 4.820312 -1.390625 4.722656 -1.0625 4.546875 -0.78125 C 4.367188 -0.507812 4.125 -0.296875 3.8125 -0.140625 C 3.5 0.015625 3.128906 0.09375 2.703125 0.09375 Z M 2.703125 0.09375 "/></g></g></g><g fill="#fca311" fill-opacity="1"><g transform="translate(65.765303, 23.586269)"><g><path d="M 2.71875 0.09375 C 2.226562 0.09375 1.800781 -0.00390625 1.4375 -0.203125 C 1.082031 -0.410156 0.8125 -0.695312 0.625 -1.0625 C 0.4375 -1.4375 0.34375 -1.875 0.34375 -2.375 C 0.34375 -2.875 0.4375 -3.304688 0.625 -3.671875 C 0.8125 -4.046875 1.078125 -4.335938 1.421875 -4.546875 C 1.773438 -4.753906 2.191406 -4.859375 2.671875 -4.859375 C 3.085938 -4.859375 3.46875 -4.769531 3.8125 -4.59375 C 4.15625 -4.414062 4.425781 -4.144531 4.625 -3.78125 C 4.820312 -3.414062 4.921875 -2.960938 4.921875 -2.421875 L 4.921875 -2.0625 L 1.65625 -2.0625 C 1.65625 -1.695312 1.75 -1.410156 1.9375 -1.203125 C 2.132812 -1.003906 2.398438 -0.90625 2.734375 -0.90625 C 2.960938 -0.90625 3.15625 -0.953125 3.3125 -1.046875 C 3.476562 -1.140625 3.59375 -1.273438 3.65625 -1.453125 L 4.890625 -1.375 C 4.796875 -0.925781 4.554688 -0.566406 4.171875 -0.296875 C 3.796875 -0.0351562 3.3125 0.09375 2.71875 0.09375 Z M 1.65625 -2.890625 L 3.671875 -2.890625 C 3.671875 -3.171875 3.578125 -3.40625 3.390625 -3.59375 C 3.210938 -3.78125 2.976562 -3.875 2.6875 -3.875 C 2.394531 -3.875 2.148438 -3.773438 1.953125 -3.578125 C 1.765625 -3.390625 1.664062 -3.160156 1.65625 -2.890625 Z M 1.65625 -2.890625 "/></g></g></g><g fill="#ffffff" fill-opacity="1"><g transform="translate(28.308899, 32.45703)"><g><path d="M 2.71875 0.09375 C 2.226562 0.09375 1.800781 -0.00390625 1.4375 -0.203125 C 1.082031 -0.410156 0.8125 -0.695312 0.625 -1.0625 C 0.4375 -1.4375 0.34375 -1.875 0.34375 -2.375 C 0.34375 -2.875 0.4375 -3.304688 0.625 -3.671875 C 0.8125 -4.046875 1.078125 -4.335938 1.421875 -4.546875 C 1.773438 -4.753906 2.191406 -4.859375 2.671875 -4.859375 C 3.085938 -4.859375 3.46875 -4.769531 3.8125 -4.59375 C 4.15625 -4.414062 4.425781 -4.144531 4.625 -3.78125 C 4.820312 -3.414062 4.921875 -2.960938 4.921875 -2.421875 L 4.921875 -2.0625 L 1.65625 -2.0625 C 1.65625 -1.695312 1.75 -1.410156 1.9375 -1.203125 C 2.132812 -1.003906 2.398438 -0.90625 2.734375 -0.90625 C 2.960938 -0.90625 3.15625 -0.953125 3.3125 -1.046875 C 3.476562 -1.140625 3.59375 -1.273438 3.65625 -1.453125 L 4.890625 -1.375 C 4.796875 -0.925781 4.554688 -0.566406 4.171875 -0.296875 C 3.796875 -0.0351562 3.3125 0.09375 2.71875 0.09375 Z M 1.65625 -2.890625 L 3.671875 -2.890625 C 3.671875 -3.171875 3.578125 -3.40625 3.390625 -3.59375 C 3.210938 -3.78125 2.976562 -3.875 2.6875 -3.875 C 2.394531 -3.875 2.148438 -3.773438 1.953125 -3.578125 C 1.765625 -3.390625 1.664062 -3.160156 1.65625 -2.890625 Z M 1.65625 -2.890625 "/></g></g></g><g fill="#ffffff" fill-opacity="1"><g transform="translate(33.569956, 32.45703)"><g><path d="M 1.859375 -2.78125 L 1.859375 0 L 0.53125 0 L 0.53125 -4.796875 L 1.796875 -4.796875 L 1.796875 -3.953125 L 1.859375 -3.953125 C 1.960938 -4.234375 2.140625 -4.453125 2.390625 -4.609375 C 2.640625 -4.773438 2.941406 -4.859375 3.296875 -4.859375 C 3.796875 -4.859375 4.195312 -4.695312 4.5 -4.375 C 4.800781 -4.050781 4.953125 -3.613281 4.953125 -3.0625 L 4.953125 0 L 3.625 0 L 3.625 -2.8125 C 3.625 -3.113281 3.546875 -3.34375 3.390625 -3.5 C 3.242188 -3.664062 3.035156 -3.75 2.765625 -3.75 C 2.503906 -3.75 2.285156 -3.660156 2.109375 -3.484375 C 1.941406 -3.316406 1.859375 -3.082031 1.859375 -2.78125 Z M 1.859375 -2.78125 "/></g></g></g><g fill="#ffffff" fill-opacity="1"><g transform="translate(39.043581, 32.45703)"><g><path d="M 3.078125 -4.796875 L 3.078125 -3.796875 L 2.1875 -3.796875 L 2.1875 -1.46875 C 2.1875 -1.289062 2.226562 -1.164062 2.3125 -1.09375 C 2.394531 -1.03125 2.5 -1 2.625 -1 C 2.6875 -1 2.75 -1.003906 2.8125 -1.015625 C 2.875 -1.035156 2.925781 -1.046875 2.96875 -1.046875 L 3.171875 -0.0625 C 3.109375 -0.0390625 3.015625 -0.015625 2.890625 0.015625 C 2.765625 0.046875 2.617188 0.0625 2.453125 0.0625 C 1.960938 0.0820312 1.570312 -0.0195312 1.28125 -0.25 C 0.988281 -0.476562 0.84375 -0.828125 0.84375 -1.296875 L 0.84375 -3.796875 L 0.1875 -3.796875 L 0.1875 -4.796875 L 0.84375 -4.796875 L 0.84375 -5.953125 L 2.1875 -5.953125 L 2.1875 -4.796875 Z M 3.078125 -4.796875 "/></g></g></g><g fill="#ffffff" fill-opacity="1"><g transform="translate(42.463424, 32.45703)"><g><path d="M 0.53125 0 L 0.53125 -4.796875 L 1.828125 -4.796875 L 1.828125 -3.96875 L 1.875 -3.96875 C 1.957031 -4.257812 2.101562 -4.484375 2.3125 -4.640625 C 2.519531 -4.796875 2.757812 -4.875 3.03125 -4.875 C 3.15625 -4.875 3.269531 -4.859375 3.375 -4.828125 C 3.488281 -4.796875 3.59375 -4.75 3.6875 -4.6875 L 3.28125 -3.59375 C 3.21875 -3.625 3.148438 -3.648438 3.078125 -3.671875 C 3.003906 -3.691406 2.921875 -3.703125 2.828125 -3.703125 C 2.554688 -3.703125 2.328125 -3.609375 2.140625 -3.421875 C 1.953125 -3.242188 1.859375 -3.007812 1.859375 -2.71875 L 1.859375 0 Z M 0.53125 0 "/></g></g></g><g fill="#ffffff" fill-opacity="1"><g transform="translate(46.236506, 32.45703)"><g><path d="M 1.90625 0.09375 C 1.445312 0.09375 1.066406 -0.0234375 0.765625 -0.265625 C 0.460938 -0.503906 0.3125 -0.863281 0.3125 -1.34375 C 0.3125 -1.695312 0.394531 -1.972656 0.5625 -2.171875 C 0.726562 -2.378906 0.945312 -2.53125 1.21875 -2.625 C 1.5 -2.726562 1.796875 -2.789062 2.109375 -2.8125 C 2.523438 -2.851562 2.820312 -2.894531 3 -2.9375 C 3.175781 -2.988281 3.265625 -3.09375 3.265625 -3.25 L 3.265625 -3.265625 C 3.265625 -3.460938 3.203125 -3.613281 3.078125 -3.71875 C 2.960938 -3.832031 2.789062 -3.890625 2.5625 -3.890625 C 2.320312 -3.890625 2.128906 -3.835938 1.984375 -3.734375 C 1.847656 -3.628906 1.753906 -3.5 1.703125 -3.34375 L 0.46875 -3.4375 C 0.5625 -3.875 0.789062 -4.21875 1.15625 -4.46875 C 1.519531 -4.726562 1.988281 -4.859375 2.5625 -4.859375 C 2.914062 -4.859375 3.25 -4.800781 3.5625 -4.6875 C 3.875 -4.582031 4.125 -4.410156 4.3125 -4.171875 C 4.507812 -3.929688 4.609375 -3.617188 4.609375 -3.234375 L 4.609375 0 L 3.34375 0 L 3.34375 -0.671875 L 3.296875 -0.671875 C 3.179688 -0.441406 3.007812 -0.253906 2.78125 -0.109375 C 2.550781 0.0234375 2.257812 0.09375 1.90625 0.09375 Z M 2.28125 -0.828125 C 2.570312 -0.828125 2.8125 -0.910156 3 -1.078125 C 3.1875 -1.253906 3.28125 -1.46875 3.28125 -1.71875 L 3.28125 -2.21875 C 3.226562 -2.1875 3.144531 -2.15625 3.03125 -2.125 C 2.925781 -2.101562 2.8125 -2.082031 2.6875 -2.0625 C 2.5625 -2.039062 2.453125 -2.023438 2.359375 -2.015625 C 2.117188 -1.972656 1.925781 -1.90625 1.78125 -1.8125 C 1.644531 -1.71875 1.578125 -1.578125 1.578125 -1.390625 C 1.578125 -1.203125 1.640625 -1.0625 1.765625 -0.96875 C 1.898438 -0.875 2.070312 -0.828125 2.28125 -0.828125 Z M 2.28125 -0.828125 "/></g></g></g><g fill="#ffffff" fill-opacity="1"><g transform="translate(51.344388, 32.45703)"><g><path d="M 1.859375 -6.390625 L 1.859375 0 L 0.53125 0 L 0.53125 -6.390625 Z M 1.859375 -6.390625 "/></g></g></g></svg>